# Blender 3.4.1
# www.blender.org
mtllib woodenStick.mtl
o sign
v 0.000000 0.000000 -0.059500
v -0.051529 0.000000 -0.029750
v -0.051528 0.000000 0.029750
v 0.000000 0.000000 0.059500
v 0.051529 0.000000 0.029750
v 0.051529 0.000000 -0.029750
v 0.000000 2.303500 -0.076500
v -0.066251 2.303500 -0.038250
v -0.066251 2.303500 0.038250
v 0.000000 2.303500 0.076500
v 0.066251 2.303500 0.038250
v 0.066251 2.303500 -0.038250
v 0.000000 2.456500 -0.122400
v -0.106002 2.456500 -0.061200
v -0.106001 2.456500 0.061200
v 0.000000 2.456500 0.122400
v 0.106002 2.456500 0.061200
v 0.106002 2.456500 -0.061200
vn -0.0000 -0.1560 -0.9878
vn 0.8660 -0.0074 -0.5000
vn -0.0000 -0.0074 -1.0000
vn 0.8554 -0.1560 0.4939
vn -0.0000 -0.0074 1.0000
vn 0.8660 -0.0074 0.5000
vn -0.8554 -0.1560 0.4939
vn -0.8660 -0.0074 -0.5000
vn -0.8660 -0.0074 0.5000
vn 0.8554 -0.1560 -0.4939
vn 0.7505 0.4989 -0.4333
vn -0.0000 -0.1560 0.9878
vn -0.7505 0.4989 0.4333
vn -0.7505 0.4989 -0.4333
vn -0.8554 -0.1560 -0.4939
vn -0.0000 0.4989 -0.8666
vn 0.7505 0.4989 0.4333
vn -0.0000 0.4989 0.8666
vt 0.385526 0.028322
vt 0.253290 0.021728
vt 0.275128 0.023307
vt 0.297012 0.024693
vt 0.318918 0.025882
vt 0.340825 0.026874
vt 0.362712 0.027672
vt 0.363595 0.911627
vt 0.185862 0.902269
vt 0.214132 0.910318
vt 0.244254 0.915735
vt 0.274978 0.918442
vt 0.305527 0.918655
vt 0.335288 0.916419
vt 0.156371 0.952183
vt 0.385526 0.957682
vt 0.480582 0.380143
vt 0.457245 0.420563
vt 0.197468 0.969051
vt 0.237405 0.976332
vt 0.410572 0.420563
vt 0.275640 0.978272
vt 0.387235 0.380143
vt 0.410572 0.339722
vt 0.312844 0.976264
vt 0.349612 0.969980
vt 0.457245 0.339722
s 1
usemtl Material
f 7/8/1 6/7/2 1/1/3
f 11/13/4 4/5/5 5/6/6
f 9/11/7 2/3/8 3/4/9
f 12/14/10 5/6/6 6/7/2
f 4/5/5 9/11/7 3/4/9
f 2/3/8 7/9/1 1/2/3
f 18/26/11 11/13/4 12/14/10
f 10/12/12 15/20/13 9/11/7
f 14/19/14 7/9/1 8/10/15
f 13/16/16 12/14/10 7/8/1
f 17/25/17 10/12/12 11/13/4
f 15/20/13 8/10/15 9/11/7
f 15/21/13 13/17/16 14/18/14
f 18/27/11 16/23/18 17/24/17
f 7/8/1 12/14/10 6/7/2
f 11/13/4 10/12/12 4/5/5
f 9/11/7 8/10/15 2/3/8
f 12/14/10 11/13/4 5/6/6
f 4/5/5 10/12/12 9/11/7
f 2/3/8 8/10/15 7/9/1
f 18/26/11 17/25/17 11/13/4
f 10/12/12 16/22/18 15/20/13
f 14/19/14 13/15/16 7/9/1
f 13/16/16 18/26/11 12/14/10
f 17/25/17 16/22/18 10/12/12
f 15/20/13 14/19/14 8/10/15
f 15/21/13 16/23/18 13/17/16
f 18/27/11 13/17/16 16/23/18
