# Blender 3.4.1
# www.blender.org
mtllib woodenArrow1.mtl
o sign.002
v -0.592475 2.257367 0.085000
v 0.592475 2.257367 0.085000
v -0.592475 1.983917 0.085000
v 0.592475 1.983917 0.085000
v 0.603869 2.200398 0.085000
v 0.512719 2.143430 0.085000
v 0.603869 2.143430 0.085000
v 0.581081 2.075067 0.085000
v -0.911500 2.120642 0.085000
v -0.592475 2.257367 0.127500
v 0.592475 2.257367 0.127500
v -0.592475 1.983917 0.127500
v 0.592475 1.983917 0.127500
v 0.603869 2.200398 0.127500
v 0.512719 2.143430 0.127500
v 0.603869 2.143430 0.127500
v 0.581081 2.075067 0.127500
v -0.911500 2.120642 0.127500
vn -0.7518 -0.0000 -0.6594
vn -0.1292 0.6296 -0.7661
vn -0.1292 -0.6296 -0.7661
vn 0.4538 0.5536 -0.6983
vn 0.1078 0.0309 -0.9937
vn 0.5996 0.4321 -0.6736
vn 0.5347 -0.0529 -0.8434
vn 0.5483 -0.4840 -0.6820
vn -0.7518 -0.0000 0.6594
vn -0.1292 -0.6296 0.7661
vn -0.1292 0.6296 0.7661
vn 0.4538 0.5536 0.6983
vn 0.1078 0.0309 0.9937
vn 0.6486 -0.2799 0.7078
vn 0.5996 0.4321 0.6736
vn 0.5347 -0.0529 0.8434
vn 0.5483 -0.4840 0.6820
vn 0.6486 -0.2799 -0.7078
vt 0.477989 0.180725
vt 0.485972 0.456395
vt 0.403441 0.613601
vt 0.815075 0.180725
vt 0.823055 0.456396
vt 0.477989 0.258514
vt 0.485974 0.458105
vt 0.823057 0.458105
vt 0.403441 0.493937
vt 0.815075 0.258514
vt 0.818316 0.196931
vt 0.403441 0.597074
vt 0.792387 0.213138
vt 0.403441 0.566497
vt 0.818316 0.213138
vt 0.403441 0.540567
vt 0.811834 0.232585
vt 0.403441 0.520068
vt 0.387235 0.219620
vt 0.387235 0.456395
vt 0.387235 0.458105
vt 0.477989 0.338013
vt 0.485972 0.440189
vt 0.815075 0.338013
vt 0.823055 0.440189
vt 0.387235 0.613601
vt 0.477989 0.260224
vt 0.485974 0.474311
vt 0.815075 0.260224
vt 0.823057 0.474311
vt 0.387235 0.493937
vt 0.818316 0.321807
vt 0.387235 0.597075
vt 0.792387 0.305601
vt 0.387235 0.566497
vt 0.818317 0.305601
vt 0.387235 0.540567
vt 0.811834 0.286154
vt 0.387235 0.520068
vt 0.387235 0.299118
vt 0.387235 0.474312
vt 0.387235 0.440189
s 1
usemtl Material
f 9/19/1 1/1/2 3/6/3
f 2/4/4 6/13/5 1/1/2
f 1/1/2 6/13/5 3/6/3
f 7/15/6 8/17/7 6/13/5
f 4/10/8 6/13/5 8/17/7
f 18/40/9 12/27/10 10/22/11
f 11/24/12 15/34/13 14/32/14
f 10/22/11 12/27/10 15/34/13
f 16/36/15 15/34/13 17/38/16
f 13/29/17 15/34/13 12/27/10
f 16/37/15 8/18/7 7/16/6
f 13/30/17 3/7/3 4/8/8
f 12/28/10 9/21/1 3/7/3
f 8/18/7 13/31/17 4/9/8
f 14/33/14 6/14/5 5/12/18
f 10/23/11 2/5/4 1/2/2
f 18/42/9 1/2/2 9/20/1
f 15/35/13 7/16/6 6/14/5
f 11/26/12 5/12/18 2/3/4
f 2/4/4 5/11/18 6/13/5
f 4/10/8 3/6/3 6/13/5
f 11/24/12 10/22/11 15/34/13
f 13/29/17 17/38/16 15/34/13
f 16/37/15 17/39/16 8/18/7
f 13/30/17 12/28/10 3/7/3
f 12/28/10 18/41/9 9/21/1
f 8/18/7 17/39/16 13/31/17
f 14/33/14 15/35/13 6/14/5
f 10/23/11 11/25/12 2/5/4
f 18/42/9 10/23/11 1/2/2
f 15/35/13 16/37/15 7/16/6
f 11/26/12 14/33/14 5/12/18
